<mxfile host="app.diagrams.net" modified="2023-07-01T08:54:26.998Z" agent="Mozilla/5.0 (Windows NT 10.0; Win64; x64) AppleWebKit/537.36 (KHTML, like Gecko) Chrome/97.0.4692.71 Safari/537.36" version="21.5.0" etag="l3_5kD0aN7JYHhO72O2f" type="github">
  <diagram name="第 1 页" id="M8D7PPIxWXtTpU-IivwT">
    <mxGraphModel>
      <root>
        <mxCell id="0" />
        <mxCell id="1" parent="0" />
      </root>
    </mxGraphModel>
  </diagram>
</mxfile>
